<?xml version="1.0" standalone="no"?>
<!DOCTYPE svg PUBLIC "-//W3C//DTD SVG 20010904//EN"
 "http://www.w3.org/TR/2001/REC-SVG-20010904/DTD/svg10.dtd">
<svg version="1.0" xmlns="http://www.w3.org/2000/svg"
 width="225.000000pt" height="225.000000pt" viewBox="0 0 225.000000 225.000000"
 preserveAspectRatio="xMidYMid meet">
<metadata>
Created by potrace 1.14, written by Peter Selinger 2001-2017
</metadata>
<g transform="translate(0.000000,225.000000) scale(0.100000,-0.100000)"
fill="#000000" stroke="none">
<path d="M270 1872 c-80 -92 -145 -172 -145 -178 0 -6 65 -91 145 -188 l145
-176 715 1 715 0 140 176 c77 96 141 179 143 183 2 5 -63 85 -143 179 l-146
171 -712 0 -712 -1 -145 -167z m1615 53 c37 -41 64 -79 60 -85 -5 -8 -11 -8
-21 1 -7 6 -11 16 -7 22 3 5 1 7 -5 3 -6 -3 -14 3 -17 15 -5 16 -10 18 -18 10
-9 -9 -2 -20 27 -46 25 -22 35 -38 30 -47 -4 -7 -4 -10 1 -6 4 4 14 0 22 -8
25 -25 28 -6 4 20 -12 13 -18 26 -13 30 8 4 105 -96 125 -130 4 -7 -18 -43
-49 -80 -74 -91 -78 -94 -69 -64 5 19 4 21 -4 10 -9 -12 -11 -13 -11 -1 0 8
-3 12 -6 9 -3 -4 -1 -16 6 -27 9 -18 3 -31 -53 -98 l-64 -78 -468 -3 -469 -2
47 43 c26 24 44 47 41 50 -4 3 -24 -12 -45 -34 l-39 -40 -32 30 c-18 17 -37
31 -41 31 -5 0 -5 5 -1 12 4 7 3 8 -4 4 -7 -4 -12 -2 -12 4 0 6 -7 18 -16 27
-11 12 -18 13 -27 4 -7 -7 -7 -11 0 -11 10 0 56 -42 102 -93 l24 -27 -224 1
-224 0 -42 52 c-68 82 -172 209 -199 241 -14 16 -23 32 -22 36 2 3 61 72 133
153 l130 147 692 0 691 0 67 -75z"/>
<path d="M470 1960 c-9 -6 -10 -10 -3 -10 6 0 15 5 18 10 8 12 4 12 -15 0z"/>
<path d="M540 1960 c0 -5 5 -10 10 -10 6 0 10 5 10 10 0 6 -4 10 -10 10 -5 0
-10 -4 -10 -10z"/>
<path d="M720 1960 c0 -5 5 -10 10 -10 6 0 10 5 10 10 0 6 -4 10 -10 10 -5 0
-10 -4 -10 -10z"/>
<path d="M780 1960 c0 -5 5 -10 10 -10 6 0 10 5 10 10 0 6 -4 10 -10 10 -5 0
-10 -4 -10 -10z"/>
<path d="M965 1960 c-3 -5 1 -10 9 -10 9 0 16 5 16 10 0 6 -4 10 -9 10 -6 0
-13 -4 -16 -10z"/>
<path d="M1210 1960 c-12 -8 -11 -10 8 -10 12 0 22 5 22 10 0 13 -11 13 -30 0z"/>
<path d="M1530 1960 c8 -5 20 -10 25 -10 6 0 3 5 -5 10 -8 5 -19 10 -25 10 -5
0 -3 -5 5 -10z"/>
<path d="M1705 1960 c-3 -5 3 -10 14 -10 12 0 21 5 21 10 0 6 -6 10 -14 10 -8
0 -18 -4 -21 -10z"/>
<path d="M1815 1940 c3 -5 8 -10 11 -10 2 0 4 5 4 10 0 6 -5 10 -11 10 -5 0
-7 -4 -4 -10z"/>
<path d="M441 1931 c-8 -5 -9 -11 -3 -15 5 -3 15 1 22 9 14 16 3 20 -19 6z"/>
<path d="M690 1930 c-8 -5 -12 -11 -10 -14 3 -2 14 2 24 10 22 15 10 19 -14 4z"/>
<path d="M810 1930 c8 -5 20 -10 25 -10 6 0 3 5 -5 10 -8 5 -19 10 -25 10 -5
0 -3 -5 5 -10z"/>
<path d="M1066 1926 c21 -15 30 -14 19 3 -3 6 -14 11 -23 11 -13 0 -13 -2 4
-14z"/>
<path d="M1191 1931 c-8 -5 -9 -11 -3 -15 5 -3 12 1 16 9 6 17 6 18 -13 6z"/>
<path d="M1310 1936 c0 -2 7 -9 15 -16 12 -10 15 -10 15 4 0 9 -7 16 -15 16
-8 0 -15 -2 -15 -4z"/>
<path d="M1415 1915 c-36 -29 -60 -33 -50 -7 5 14 4 15 -6 5 -10 -10 -10 -16
-2 -24 6 -6 9 -18 6 -26 -4 -11 -8 -12 -13 -2 -5 6 -15 9 -24 6 -14 -6 -16
-27 -14 -169 3 -155 4 -163 23 -163 17 0 20 8 23 48 2 26 8 47 14 47 5 0 8 -6
5 -13 -3 -8 1 -14 9 -14 8 0 14 9 14 20 0 11 -3 17 -7 14 -3 -4 -12 -2 -20 4
-9 8 -13 38 -13 103 0 101 7 120 36 109 17 -6 17 -5 6 10 -15 17 -9 37 11 37
7 0 18 9 25 20 16 26 13 25 -23 -5z"/>
<path d="M1670 1930 c-8 -5 -11 -12 -8 -16 4 -3 14 1 23 10 18 17 9 21 -15 6z"/>
<path d="M938 1923 c7 -3 16 -2 19 1 4 3 -2 6 -13 5 -11 0 -14 -3 -6 -6z"/>
<path d="M1579 1919 c-11 -7 -11 -9 3 -9 9 0 18 -8 20 -17 3 -15 5 -15 10 -3
8 20 -15 41 -33 29z"/>
<path d="M1840 1914 c0 -17 17 -36 24 -26 3 5 -1 15 -9 22 -8 7 -15 9 -15 4z"/>
<path d="M397 1904 c-3 -3 -3 -12 0 -20 4 -12 -7 -18 -29 -16 -3 1 -9 -5 -12
-13 -6 -18 -1 -19 23 -5 15 8 27 1 65 -37 25 -26 46 -42 46 -35 0 11 -35 46
-75 76 -12 9 -15 15 -7 20 7 4 12 14 12 22 0 14 -12 19 -23 8z"/>
<path d="M1110 1907 c0 -3 4 -17 10 -31 7 -21 6 -26 -5 -26 -8 0 -15 -4 -15
-10 0 -13 3 -13 33 3 l26 13 -25 29 c-13 15 -24 25 -24 22z"/>
<path d="M1636 1885 c-14 -11 -47 -15 -117 -15 -79 0 -98 -3 -103 -16 -11 -28
4 -34 80 -34 71 0 74 -1 62 -19 -7 -11 -15 -18 -19 -15 -4 2 -7 -4 -7 -13 1
-10 -20 -53 -46 -95 -35 -58 -51 -76 -64 -72 -12 4 -14 3 -4 -3 10 -8 11 -15
1 -36 -7 -15 -9 -30 -6 -34 11 -10 210 -4 221 7 19 19 -9 30 -82 31 -40 1 -72
3 -72 4 0 16 34 64 42 59 6 -4 8 -2 5 3 -4 6 11 40 32 75 21 36 48 81 59 102
19 35 21 36 38 19 17 -17 18 -17 9 2 -4 11 -8 30 -8 43 1 12 0 22 -1 22 0 0
-10 -7 -20 -15z"/>
<path d="M620 1866 c-7 -14 -16 -24 -20 -23 -5 1 -20 -15 -34 -35 -14 -21 -21
-38 -15 -38 5 0 14 11 21 25 6 13 16 22 21 18 6 -4 8 0 4 10 -4 10 -2 14 7 11
17 -7 52 34 40 46 -7 7 -15 2 -24 -14z"/>
<path d="M874 1874 c3 -9 6 -18 6 -20 0 -3 5 -2 10 1 16 10 12 35 -6 35 -11 0
-14 -5 -10 -16z"/>
<path d="M665 1858 c-35 -19 -73 -60 -86 -92 -7 -17 -16 -33 -21 -36 -10 -7 8
-76 29 -114 14 -26 14 -29 -1 -38 -9 -5 -16 -16 -16 -25 0 -9 -3 -14 -6 -10
-4 3 -13 -1 -21 -9 -9 -8 -22 -13 -29 -10 -8 3 -21 9 -31 13 -11 4 -14 3 -9
-5 4 -7 14 -12 22 -12 8 0 14 -7 14 -15 0 -8 5 -15 10 -15 6 0 10 6 10 14 0 7
9 16 21 19 11 3 23 15 26 26 3 11 9 18 14 15 5 -3 9 0 9 6 0 6 11 3 25 -8 46
-37 156 -51 184 -24 11 11 18 9 42 -14 17 -16 34 -24 43 -21 22 9 20 20 -9 51
l-24 26 22 34 c12 18 25 32 28 30 3 -2 16 6 27 17 l22 20 0 -37 c0 -46 34 -99
73 -115 35 -15 103 -6 128 17 15 13 22 14 33 5 10 -8 16 -9 21 -1 3 5 -1 13
-9 16 -11 4 -13 11 -5 31 5 13 9 61 9 105 0 68 2 79 14 69 23 -19 28 4 6 24
-11 10 -20 27 -20 37 0 14 -6 19 -21 16 -21 -3 -22 -8 -21 -108 1 -58 -1 -100
-4 -93 -6 13 -54 -31 -54 -50 0 -9 29 9 42 28 5 6 8 3 8 -6 0 -44 -101 -67
-134 -30 -33 36 -33 170 -1 157 9 -3 15 0 15 8 0 8 6 16 13 19 7 2 8 8 3 13
-5 5 -11 4 -13 -3 -3 -7 -13 -13 -24 -13 -16 0 -19 7 -19 41 0 33 -3 40 -17
37 -15 -3 -19 -16 -21 -74 -2 -61 -6 -75 -27 -94 l-25 -23 0 36 c0 100 -80
177 -182 177 -24 0 -52 -6 -63 -12z m130 -49 c14 -5 15 -8 5 -8 -9 -1 -16 -10
-16 -21 0 -11 5 -18 11 -16 5 2 9 9 8 15 -6 25 28 9 43 -21 18 -35 15 -108 -6
-132 -10 -13 -16 -11 -42 12 -51 46 -63 46 -64 -2 -1 -24 1 -33 5 -23 6 16 9
16 30 -7 l24 -25 -26 -6 c-33 -9 -63 -2 -59 14 2 9 -3 9 -17 1 -17 -8 -22 -6
-32 12 -10 19 -8 25 25 55 21 20 30 33 21 33 -8 0 -15 -4 -15 -10 0 -5 -6 -10
-13 -10 -7 0 -18 -10 -26 -22 -13 -21 -14 -21 -27 -3 -31 42 -12 113 41 157
19 16 46 26 32 12 -4 -4 3 -15 15 -26 12 -10 24 -15 27 -12 3 3 -2 12 -13 19
-41 30 4 40 69 14z"/>
<path d="M756 1751 c-4 -7 -5 -15 -2 -18 9 -9 19 4 14 18 -4 11 -6 11 -12 0z"/>
<path d="M720 1714 c0 -8 5 -12 10 -9 6 3 10 10 10 16 0 5 -4 9 -10 9 -5 0
-10 -7 -10 -16z"/>
<path d="M794 1713 c9 -10 23 -27 31 -38 7 -11 17 -17 20 -13 8 8 -45 68 -59
68 -5 0 -2 -8 8 -17z"/>
<path d="M1843 1865 c4 -5 -12 -28 -35 -52 -23 -24 -36 -43 -29 -43 13 0 80
68 81 82 0 4 -6 10 -12 14 -7 4 -10 3 -5 -1z"/>
<path d="M923 1823 c9 -9 19 -14 23 -11 10 10 -6 28 -24 28 -15 0 -15 -1 1
-17z"/>
<path d="M298 1790 c-40 -43 -35 -54 7 -16 19 18 35 35 35 39 0 14 -16 6 -42
-23z"/>
<path d="M1438 1803 c7 -3 16 -2 19 1 4 3 -2 6 -13 5 -11 0 -14 -3 -6 -6z"/>
<path d="M1291 1784 c0 -11 3 -14 6 -6 3 7 2 16 -1 19 -3 4 -6 -2 -5 -13z"/>
<path d="M1470 1784 c0 -4 8 -13 18 -20 16 -13 14 -16 -18 -47 -38 -36 -65
-67 -58 -67 6 0 92 83 109 104 13 18 12 19 -4 13 -11 -4 -20 -1 -23 8 -6 15
-24 21 -24 9z"/>
<path d="M1271 1764 c0 -11 3 -14 6 -6 3 7 2 16 -1 19 -3 4 -6 -2 -5 -13z"/>
<path d="M510 1746 c0 -9 5 -16 10 -16 6 0 10 4 10 9 0 6 -4 13 -10 16 -5 3
-10 -1 -10 -9z"/>
<path d="M1747 1753 c-13 -12 -7 -23 13 -23 11 0 20 -5 20 -12 0 -6 3 -9 6 -6
6 7 -17 48 -27 48 -3 0 -9 -3 -12 -7z"/>
<path d="M1981 1737 c-7 -10 -10 -22 -7 -25 3 -3 6 0 6 6 0 17 20 15 42 -5 10
-9 21 -13 24 -10 10 10 -17 38 -29 30 -6 -4 -8 0 -5 9 9 22 -17 18 -31 -5z"/>
<path d="M222 1717 c-26 -28 -27 -34 -7 -53 8 -9 15 -12 15 -7 0 5 -5 14 -12
21 -9 9 -9 12 0 12 7 0 11 4 10 9 -2 5 6 17 17 25 11 8 15 16 9 16 -6 0 -20
-10 -32 -23z"/>
<path d="M290 1721 c0 -5 7 -12 16 -15 14 -5 15 -4 4 9 -14 17 -20 19 -20 6z"/>
<path d="M480 1720 c0 -5 5 -10 10 -10 6 0 10 5 10 10 0 6 -4 10 -10 10 -5 0
-10 -4 -10 -10z"/>
<path d="M1292 1710 c0 -14 2 -19 5 -12 2 6 2 18 0 25 -3 6 -5 1 -5 -13z"/>
<path d="M1040 1700 c0 -5 5 -10 11 -10 5 0 7 5 4 10 -3 6 -8 10 -11 10 -2 0
-4 -4 -4 -10z"/>
<path d="M440 1680 c0 -5 5 -10 10 -10 6 0 10 5 10 10 0 6 -4 10 -10 10 -5 0
-10 -4 -10 -10z"/>
<path d="M1070 1680 c0 -5 5 -10 10 -10 6 0 10 5 10 10 0 6 -4 10 -10 10 -5 0
-10 -4 -10 -10z"/>
<path d="M1570 1684 c0 -5 9 -20 20 -34 14 -18 20 -21 20 -9 0 9 -9 24 -20 34
-11 10 -20 14 -20 9z"/>
<path d="M2026 1682 c-3 -5 1 -9 9 -9 8 0 12 4 9 9 -3 4 -7 8 -9 8 -2 0 -6 -4
-9 -8z"/>
<path d="M350 1660 c0 -5 5 -10 10 -10 6 0 10 5 10 10 0 6 -4 10 -10 10 -5 0
-10 -4 -10 -10z"/>
<path d="M1840 1654 c0 -8 5 -12 10 -9 6 4 8 11 5 16 -9 14 -15 11 -15 -7z"/>
<path d="M1905 1661 c-3 -5 -1 -12 5 -16 5 -3 10 1 10 9 0 18 -6 21 -15 7z"/>
<path d="M405 1646 c-25 -14 -35 -28 -29 -38 10 -16 34 -8 34 11 0 11 6 21 13
24 6 2 10 7 7 9 -3 3 -14 1 -25 -6z"/>
<path d="M1100 1650 c0 -5 5 -10 10 -10 6 0 10 5 10 10 0 6 -4 10 -10 10 -5 0
-10 -4 -10 -10z"/>
<path d="M1650 1649 c0 -5 5 -7 10 -4 6 3 10 8 10 11 0 2 -4 4 -10 4 -5 0 -10
-5 -10 -11z"/>
<path d="M1868 1628 c9 -9 15 -9 24 0 9 9 7 12 -12 12 -19 0 -21 -3 -12 -12z"/>
<path d="M1611 1609 c-11 -19 -11 -21 4 -15 9 3 19 6 21 6 2 0 4 7 4 15 0 21
-13 19 -29 -6z"/>
<path d="M1840 1601 c0 -5 -13 -23 -29 -40 -16 -17 -25 -31 -20 -31 11 0 40
30 57 58 7 13 8 22 2 22 -5 0 -10 -4 -10 -9z"/>
<path d="M1905 1600 c3 -5 8 -10 11 -10 2 0 4 5 4 10 0 6 -5 10 -11 10 -5 0
-7 -4 -4 -10z"/>
<path d="M355 1590 c-3 -5 -1 -10 4 -10 6 0 11 5 11 10 0 6 -2 10 -4 10 -3 0
-8 -4 -11 -10z"/>
<path d="M923 1578 c12 -13 24 -19 25 -15 5 11 -18 37 -34 37 -9 0 -5 -8 9
-22z"/>
<path d="M1675 1570 c3 -5 11 -10 16 -10 6 0 7 5 4 10 -3 6 -11 10 -16 10 -6
0 -7 -4 -4 -10z"/>
<path d="M320 1554 c0 -9 -5 -12 -12 -8 -7 4 -8 3 -4 -5 6 -9 11 -9 22 0 16
13 18 29 4 29 -5 0 -10 -7 -10 -16z"/>
<path d="M960 1553 c0 -5 9 -15 20 -23 11 -8 20 -20 20 -27 0 -7 6 -13 14 -13
8 0 17 -7 20 -16 4 -9 9 -14 12 -11 3 3 0 14 -7 25 -19 26 -79 76 -79 65z"/>
<path d="M1287 1543 c-4 -3 -7 -11 -7 -17 0 -6 5 -5 12 2 6 6 9 14 7 17 -3 3
-9 2 -12 -2z"/>
<path d="M1710 1536 c0 -2 7 -7 16 -10 8 -3 12 -2 9 4 -6 10 -25 14 -25 6z"/>
<path d="M1246 1513 c-14 -15 -5 -34 13 -28 14 4 20 1 23 -12 2 -11 6 -14 10
-7 8 12 -36 56 -46 47z"/>
<path d="M1727 1484 c-17 -20 -23 -34 -15 -34 7 0 19 9 26 20 7 12 17 18 22
15 6 -3 10 1 10 9 0 28 -16 25 -43 -10z"/>
<path d="M1500 1500 c0 -5 7 -10 15 -10 8 0 15 5 15 10 0 6 -7 10 -15 10 -8 0
-15 -4 -15 -10z"/>
<path d="M484 1475 c-9 -22 1 -29 15 -11 8 10 9 16 1 21 -5 3 -13 -1 -16 -10z"/>
<path d="M725 1469 c-11 -17 1 -21 15 -4 8 9 8 15 2 15 -6 0 -14 -5 -17 -11z"/>
<path d="M1555 1450 c3 -5 8 -10 11 -10 2 0 4 5 4 10 0 6 -5 10 -11 10 -5 0
-7 -4 -4 -10z"/>
<path d="M1795 1450 c3 -5 8 -10 11 -10 2 0 4 5 4 10 0 6 -5 10 -11 10 -5 0
-7 -4 -4 -10z"/>
<path d="M1422 1425 c-19 -24 -62 -35 -62 -15 0 6 -4 10 -10 10 -17 0 -11 -19
10 -30 23 -12 60 -5 60 12 0 6 10 19 22 29 11 11 16 19 10 19 -6 0 -19 -11
-30 -25z"/>
<path d="M435 1430 c3 -5 1 -10 -5 -10 -6 0 -8 -4 -5 -10 4 -6 11 -5 19 3 15
13 12 27 -5 27 -6 0 -7 -4 -4 -10z"/>
<path d="M1821 1435 c0 -5 3 -16 8 -24 7 -11 12 -9 22 10 11 21 11 23 -3 11
-13 -10 -17 -10 -21 0 -3 7 -6 9 -6 3z"/>
<path d="M1109 1401 c23 -17 71 -18 71 0 0 5 -13 6 -30 3 -19 -4 -30 -2 -30 5
0 6 -8 11 -17 11 -15 0 -14 -4 6 -19z"/>
<path d="M1600 1399 c0 -13 41 -22 52 -11 6 6 -1 11 -21 14 -17 3 -31 1 -31
-3z"/>
<path d="M617 1390 c12 -5 34 -5 50 0 24 7 21 8 -22 9 -38 0 -45 -2 -28 -9z"/>
<path d="M393 1178 c-31 -35 -143 -186 -143 -193 0 -4 35 -56 77 -116 l78
-109 255 0 256 0 72 105 c40 58 72 112 72 120 0 7 -34 59 -75 114 l-75 101
-248 0 c-245 0 -249 0 -269 -22z m507 -28 c0 -6 -76 -10 -209 -10 -123 0 -221
-4 -238 -11 -32 -12 -52 -32 -108 -108 -21 -30 -41 -49 -43 -42 -2 7 25 50 60
96 l63 84 238 1 c151 0 237 -4 237 -10z"/>
<path d="M1246 1094 c-60 -81 -76 -109 -70 -123 5 -9 40 -61 78 -114 l69 -97
256 0 256 0 70 102 c39 56 73 107 77 113 4 6 -28 59 -72 118 l-80 107 -252 0
-253 0 -79 -106z m574 57 c0 -6 -93 -11 -218 -13 -253 -3 -251 -3 -331 -109
-24 -32 -48 -56 -53 -53 -5 3 4 22 20 42 15 20 45 61 67 90 l39 52 238 0 c140
0 238 -4 238 -9z"/>
<path d="M327 545 c-90 -120 -91 -96 13 -243 l65 -92 250 0 c138 0 255 4 260
8 16 11 148 205 148 218 0 5 -33 56 -74 112 l-74 101 -255 1 -255 0 -78 -105z
m578 55 c4 -7 -70 -10 -215 -10 -176 0 -227 -3 -250 -15 -15 -8 -52 -47 -81
-86 -29 -39 -55 -66 -57 -60 -2 6 25 49 60 96 l63 85 237 0 c147 0 239 -4 243
-10z"/>
<path d="M1247 546 c-42 -57 -77 -107 -77 -111 0 -4 35 -56 77 -116 l77 -109
255 2 255 3 68 95 c37 52 71 105 74 116 4 16 -14 47 -70 123 l-76 101 -253 0
-253 0 -77 -104z m626 -17 c31 -43 57 -84 57 -89 0 -8 -51 -40 -65 -40 -3 0
-5 8 -6 18 0 11 -2 12 -6 4 -3 -7 1 -20 8 -28 10 -13 10 -17 -2 -24 -12 -8
-12 -11 0 -22 8 -7 11 -8 8 -2 -4 7 0 14 8 18 9 3 12 12 8 23 -5 14 -3 16 7 6
10 -9 3 -25 -35 -78 -35 -49 -50 -64 -56 -54 -7 11 -9 11 -9 1 0 -10 -5 -10
-21 -1 -14 7 -24 8 -28 1 -3 -6 -51 -9 -113 -8 -58 0 -104 4 -102 7 2 4 -6 9
-17 12 -15 4 -19 2 -15 -9 4 -11 -8 -14 -68 -14 -63 0 -75 3 -95 24 l-22 23
57 57 c31 31 51 56 45 56 -12 0 -87 -72 -84 -82 1 -3 -4 -9 -12 -11 -11 -5
-45 31 -45 48 0 3 -11 18 -24 33 -14 15 -26 31 -27 35 -1 5 27 47 62 93 l64
84 235 -1 235 0 58 -80z"/>
<path d="M1800 570 c0 -5 7 -10 15 -10 8 0 15 5 15 10 0 6 -7 10 -15 10 -8 0
-15 -4 -15 -10z"/>
<path d="M1457 550 c3 -11 9 -20 14 -20 11 0 11 3 3 24 -9 23 -23 20 -17 -4z"/>
<path d="M1683 564 c4 -4 16 -12 29 -18 25 -13 31 -26 19 -45 -7 -11 -15 -6
-39 20 -29 32 -34 34 -99 34 l-68 0 0 -125 0 -125 52 -3 c92 -5 153 49 153
136 0 23 5 42 11 42 5 0 7 5 4 10 -3 6 -1 10 4 10 16 0 54 40 46 48 -3 4 -15
-4 -25 -18 -11 -14 -20 -20 -20 -13 0 17 -40 53 -59 53 -8 0 -11 -3 -8 -6z
m-25 -77 c29 -27 30 -82 0 -114 -23 -25 -48 -30 -49 -10 0 10 -2 10 -6 0 -2
-7 -11 -13 -19 -13 -11 0 -14 18 -14 86 l0 86 33 -7 c17 -4 42 -16 55 -28z"/>
<path d="M1580 420 c0 -5 5 -10 11 -10 5 0 7 5 4 10 -3 6 -8 10 -11 10 -2 0
-4 -4 -4 -10z"/>
<path d="M1661 418 c-1 -10 -8 -18 -16 -18 -9 0 -12 -6 -8 -15 5 -13 8 -13 20
5 8 11 12 26 10 33 -3 7 -6 5 -6 -5z"/>
<path d="M1607 407 c-3 -7 1 -21 9 -32 8 -10 14 -14 14 -8 0 7 -4 14 -10 18
-5 3 -7 12 -3 20 3 8 3 15 0 15 -3 0 -7 -6 -10 -13z"/>
<path d="M1483 494 c-15 -16 -16 -24 -4 -24 8 0 24 30 19 35 -2 2 -9 -3 -15
-11z"/>
<path d="M1280 487 c0 -2 18 -23 40 -46 22 -23 40 -38 40 -32 0 5 -16 25 -36
45 -33 33 -44 41 -44 33z"/>
<path d="M1802 455 c18 -20 34 -31 36 -25 4 10 -47 59 -61 60 -5 0 6 -16 25
-35z"/>
<path d="M1441 320 c16 -24 39 -38 39 -23 0 4 -13 17 -28 28 l-27 19 16 -24z"/>
<path d="M1797 313 c3 -7 0 -13 -6 -13 -6 0 -11 -5 -11 -12 0 -6 9 -3 20 7 24
21 25 32 6 32 -8 0 -12 -6 -9 -14z"/>
<path d="M1715 300 c3 -5 8 -10 11 -10 2 0 4 5 4 10 0 6 -5 10 -11 10 -5 0 -7
-4 -4 -10z"/>
<path d="M1528 283 c7 -3 16 -2 19 1 4 3 -2 6 -13 5 -11 0 -14 -3 -6 -6z"/>
</g>
</svg>
